<?xml version="1.0" encoding="UTF-8" standalone="no"?>
<svg
   xmlns:dc="http://purl.org/dc/elements/1.1/"
   xmlns:cc="http://creativecommons.org/ns#"
   xmlns:rdf="http://www.w3.org/1999/02/22-rdf-syntax-ns#"
   xmlns:svg="http://www.w3.org/2000/svg"
   xmlns="http://www.w3.org/2000/svg"
   xmlns:sodipodi="http://sodipodi.sourceforge.net/DTD/sodipodi-0.dtd"
   xmlns:inkscape="http://www.inkscape.org/namespaces/inkscape"
   width="30mm"
   height="18mm"
   viewBox="0 0 30 18"
   version="1.1"
   id="svg8"
   inkscape:version="1.0beta2 (unknown)"
   sodipodi:docname="brand.svg"
   inkscape:export-filename="/home/zero/Documents/ClementFotography/static/favicon16.png"
   inkscape:export-xdpi="10.98"
   inkscape:export-ydpi="10.98">
  <defs
     id="defs2">
    <inkscape:path-effect
       lpeversion="1"
       is_visible="true"
       id="path-effect1728"
       effect="spiro" />
  </defs>
  <sodipodi:namedview
     id="base"
     pagecolor="#ffffff"
     bordercolor="#666666"
     borderopacity="1.0"
     inkscape:pageopacity="0.0"
     inkscape:pageshadow="2"
     inkscape:zoom="8"
     inkscape:cx="54.222769"
     inkscape:cy="47.626934"
     inkscape:document-units="mm"
     inkscape:current-layer="layer1"
     showgrid="false"
     inkscape:window-width="1920"
     inkscape:window-height="1144"
     inkscape:window-x="0"
     inkscape:window-y="27"
     inkscape:window-maximized="1"
     fit-margin-top="0"
     fit-margin-left="0"
     fit-margin-right="0"
     fit-margin-bottom="0"
     inkscape:document-rotation="0" />
  <metadata
     id="metadata5">
    <rdf:RDF>
      <cc:Work
         rdf:about="">
        <dc:format>image/svg+xml</dc:format>
        <dc:type
           rdf:resource="http://purl.org/dc/dcmitype/StillImage" />
        <dc:title></dc:title>
      </cc:Work>
    </rdf:RDF>
  </metadata>
  <g
     inkscape:label="Layer 1"
     inkscape:groupmode="layer"
     id="layer1"
     transform="translate(-81.002228,-129.64285)">
    <path
       sodipodi:nodetypes="cc"
       inkscape:connector-curvature="0"
       id="path1467"
       d="m 83.682363,130.37609 c 1.155516,8.30551 6.885527,15.16224 6.885527,15.16224"
       style="fill:none;stroke:#ffffff;stroke-width:0.865;stroke-linecap:round;stroke-linejoin:bevel;stroke-miterlimit:4;stroke-dasharray:none;stroke-opacity:1" />
    <path
       sodipodi:nodetypes="cc"
       inkscape:connector-curvature="0"
       id="path1469"
       d="m 90.56789,145.53833 c 4.759794,-1.54762 6.831618,-5.08187 6.831618,-5.08187"
       style="fill:none;fill-opacity:1;stroke:#ffffff;stroke-width:0.865;stroke-linecap:round;stroke-linejoin:bevel;stroke-miterlimit:4;stroke-dasharray:none;stroke-opacity:1" />
    <path
       sodipodi:nodetypes="cc"
       inkscape:connector-curvature="0"
       id="path1471"
       d="m 97.399508,140.45646 c 0.60855,2.33404 1.87814,4.22183 3.887102,5.42511"
       style="fill:none;stroke:#ffffff;stroke-width:0.865;stroke-linecap:round;stroke-linejoin:bevel;stroke-miterlimit:4;stroke-dasharray:none;stroke-opacity:1" />
    <path
       sodipodi:nodetypes="cc"
       inkscape:connector-curvature="0"
       id="path1473"
       d="m 101.28661,145.88157 c 6.00605,-3.47743 7.79,-11.78506 7.79,-11.78506"
       style="fill:none;stroke:#ffffff;stroke-width:0.865;stroke-linecap:round;stroke-linejoin:bevel;stroke-miterlimit:4;stroke-dasharray:none;stroke-opacity:1" />
    <path
       sodipodi:nodetypes="cc"
       inkscape:connector-curvature="0"
       id="path1475"
       d="m 109.07661,134.09651 c 0.3328,3.47878 1.36607,5.93101 1.36607,5.93101"
       style="fill:none;stroke:#ffffff;stroke-width:0.865;stroke-linecap:round;stroke-linejoin:bevel;stroke-miterlimit:4;stroke-dasharray:none;stroke-opacity:1" />
    <path
       sodipodi:nodetypes="cc"
       inkscape:connector-curvature="0"
       id="path1483"
       d="m 84.884087,135.31194 c 3.223923,1.94076 5.912695,1.43727 5.912695,1.43727"
       style="fill:none;stroke:#ffffff;stroke-width:0.865;stroke-linecap:round;stroke-linejoin:bevel;stroke-miterlimit:4;stroke-dasharray:none;stroke-opacity:1" />
    <path
       sodipodi:nodetypes="cc"
       inkscape:connector-curvature="0"
       id="path1485"
       d="m 86.997756,140.08867 c 2.7702,1.77537 6.314595,0.63172 6.314595,0.63172"
       style="fill:none;stroke:#ffffff;stroke-width:0.865;stroke-linecap:round;stroke-linejoin:bevel;stroke-miterlimit:4;stroke-dasharray:none;stroke-opacity:1" />
    <path
       sodipodi:nodetypes="cc"
       inkscape:connector-curvature="0"
       id="path1489"
       d="m 84.884087,135.31194 c -0.237645,2.59182 -1.820165,3.39616 -1.820165,3.39616"
       style="fill:none;stroke:#ffffff;stroke-width:0.865;stroke-linecap:round;stroke-linejoin:bevel;stroke-miterlimit:4;stroke-dasharray:none;stroke-opacity:1" />
    <path
       sodipodi:nodetypes="cc"
       inkscape:connector-curvature="0"
       id="path1491"
       d="m 86.997756,140.08867 c -1.297968,3.7965 -3.149116,4.37839 -3.149116,4.37839"
       style="fill:none;stroke:#ffffff;stroke-width:0.865;stroke-linecap:round;stroke-linejoin:bevel;stroke-miterlimit:4;stroke-dasharray:none;stroke-opacity:1" />
    <path
       inkscape:connector-curvature="0"
       id="path1554"
       d="m 90.34559,147.07675 h 20.09709 v -7.04923"
       style="fill:none;stroke:#ffffff;stroke-width:0.865;stroke-linecap:round;stroke-linejoin:round;stroke-miterlimit:4;stroke-dasharray:none;stroke-opacity:1" />
    <path
       inkscape:connector-curvature="0"
       id="path1619"
       d="m 90.523546,146.52477 c -0.191683,-0.29963 -0.680303,-1.13213 -0.67033,-1.14211 0.0062,-0.006 0.101959,0.10375 0.212704,0.24443 0.315387,0.40062 0.4013,0.42303 0.920091,0.24007 1.637554,-0.57754 3.0569,-1.38445 4.392084,-2.49694 0.516608,-0.43044 1.323173,-1.24539 1.721113,-1.73899 0.057,-0.0707 0.11406,-0.12883 0.12673,-0.12908 0.0127,-2.5e-4 0.094,0.17782 0.1808,0.39572 0.47896,1.20285 1.12084,2.19275 1.98148,3.05579 0.49265,0.49402 0.941582,0.85348 1.522602,1.21912 0.34892,0.21959 0.41364,0.2125 0.92225,-0.10099 1.58011,-0.97391 3.07307,-2.44478 4.3199,-4.25598 1.01378,-1.47266 2.01825,-3.46836 2.64983,-5.26473 0.0621,-0.1766 0.11571,-0.31826 0.11916,-0.31481 0.003,0.003 0.0444,0.19529 0.091,0.42632 0.22223,1.10107 0.59119,2.42022 0.91441,3.26931 l 0.0787,0.20663 v 3.24866 3.24866 h -9.70573 -9.705739 z"
       style="fill:#ffffff;fill-opacity:1;stroke:#ffffff;stroke-width:1.376;stroke-linecap:round;stroke-linejoin:round;stroke-miterlimit:4;stroke-dasharray:none;stroke-opacity:1" />
    <path
       style="fill:none;stroke:#ffffff;stroke-width:0.865;stroke-linecap:round;stroke-linejoin:bevel;stroke-miterlimit:4;stroke-dasharray:none;stroke-opacity:1"
       d="m 83.682363,130.37609 c 1.155517,8.30551 6.663227,16.70066 6.663227,16.70066"
       id="path1467-3"
       inkscape:connector-curvature="0"
       sodipodi:nodetypes="cc" />
    <path
       sodipodi:nodetypes="cc"
       inkscape:connector-curvature="0"
       id="path1481"
       d="m 83.682363,130.37609 c 2.473208,2.48581 4.937315,2.2279 4.937315,2.2279"
       style="fill:none;stroke:#ffffff;stroke-width:0.865;stroke-linecap:round;stroke-linejoin:bevel;stroke-miterlimit:4;stroke-dasharray:none;stroke-opacity:1" />
    <path
       sodipodi:nodetypes="cc"
       inkscape:connector-curvature="0"
       id="path1487"
       d="m 83.682363,130.37609 c -0.554051,2.20788 -1.273285,2.30537 -1.273285,2.30537"
       style="fill:none;stroke:#ffffff;stroke-width:0.865;stroke-linecap:round;stroke-linejoin:bevel;stroke-miterlimit:4;stroke-dasharray:none;stroke-opacity:1" />
  </g>
  <inkscape:templateinfo>
    <inkscape:name>Favicon</inkscape:name>
    <inkscape:date>2020-04-03</inkscape:date>
  </inkscape:templateinfo>
</svg>
