<?xml version="1.0" encoding="UTF-8" standalone="no"?>
<!-- Generator: Adobe Illustrator 15.0.2, SVG Export Plug-In . SVG Version: 6.00 Build 0)  -->

<svg
   xmlns:dc="http://purl.org/dc/elements/1.1/"
   xmlns:cc="http://creativecommons.org/ns#"
   xmlns:rdf="http://www.w3.org/1999/02/22-rdf-syntax-ns#"
   xmlns:svg="http://www.w3.org/2000/svg"
   xmlns="http://www.w3.org/2000/svg"
   xmlns:sodipodi="http://sodipodi.sourceforge.net/DTD/sodipodi-0.dtd"
   xmlns:inkscape="http://www.inkscape.org/namespaces/inkscape"
   version="1.1"
   id="Layer_1"
   x="0px"
   y="0px"
   width="197.142"
   height="197.142"
   viewBox="0 0 197.142 197.142"
   enable-background="new 0 0 480.51 384.13"
   xml:space="preserve"
   sodipodi:docname="KartverketLogo.svg"
   inkscape:version="0.92.5 (2060ec1f9f, 2020-04-08)"
   inkscape:export-filename="/home/xex/PycharmProjects/MainWebsite/flaskr/static/images/qmapshack/KartverketLogo.png"
   inkscape:export-xdpi="23.374016"
   inkscape:export-ydpi="23.374016"><metadata
   id="metadata35"><rdf:RDF><cc:Work
       rdf:about=""><dc:format>image/svg+xml</dc:format><dc:type
         rdf:resource="http://purl.org/dc/dcmitype/StillImage" /><dc:title></dc:title></cc:Work></rdf:RDF></metadata><defs
   id="defs33">
	
	
	
	
	
	
	
	
	
	
	
	
	
</defs><sodipodi:namedview
   pagecolor="#ffffff"
   bordercolor="#666666"
   borderopacity="1"
   objecttolerance="10"
   gridtolerance="10"
   guidetolerance="10"
   inkscape:pageopacity="0"
   inkscape:pageshadow="2"
   inkscape:window-width="1366"
   inkscape:window-height="719"
   id="namedview31"
   showgrid="false"
   fit-margin-top="0"
   fit-margin-left="0"
   fit-margin-right="0"
   fit-margin-bottom="0"
   inkscape:zoom="0.59103868"
   inkscape:cx="72.954005"
   inkscape:cy="55.076998"
   inkscape:window-x="0"
   inkscape:window-y="25"
   inkscape:window-maximized="1"
   inkscape:current-layer="Layer_1" />
<g
   id="g858"
   transform="translate(-136.271,-49.999996)"><path
     d="m 291.991,50 h -114.3 c -5.737,0 -10.39,4.652 -10.39,10.391 v 10.77 59.321 c 8.971,-6.824 20.198,-16.369 40.451,-11.371 17.453,4.308 21.257,17.761 48.864,33.044 16.899,9.356 32.755,2.136 45.767,-5.422 V 71.158 60.391 C 302.382,54.652 297.728,50 291.991,50"
     id="path2"
     inkscape:connector-curvature="0"
     style="fill:#00a651" /><path
     d="m 265.541,183.425 c -5.697,-0.695 -10.126,-2.664 -14.476,-5.487 -9.67,-5.971 -18.945,-15.733 -38.668,-25.971 -15.711,-7.634 -31.037,-1.814 -45.08,6.191 -0.005,0.003 -0.01,0.005 -0.016,0.008 v 28.542 50.044 c 0,5.737 4.653,10.39 10.39,10.39 h 114.3 c 5.738,0 10.392,-4.652 10.392,-10.39 v -50.04 -14.028 c -12.2,6.993 -23.913,12.674 -36.842,10.741"
     id="path4"
     inkscape:connector-curvature="0"
     style="fill:#0061aa" /><path
     d="m 256.616,152.155 c -27.607,-15.284 -31.411,-28.736 -48.864,-33.044 -20.253,-4.998 -31.48,4.546 -40.451,11.371 l 0.02,14.14 -0.004,13.536 c 14.043,-8.006 29.576,-14.238 45.08,-6.191 19.723,10.238 28.997,19.999 38.668,25.971 4.402,2.718 8.887,4.651 14.476,5.487 12.929,1.932 24.643,-3.749 36.842,-10.742 l -0.032,-12.504 0.032,-13.446 c -13.012,7.559 -28.868,14.778 -45.767,5.422"
     id="path6"
     inkscape:connector-curvature="0"
     style="fill:#ffffff" /></g>
</svg>